<svg width="8" height="11" viewBox="0 0 8 11" fill="none" xmlns="http://www.w3.org/2000/svg">
<path d="M4.75 0C4.75 0 5.12 1.325 5.12 2.4C5.12 3.43 4.445 4.265 3.415 4.265C2.38 4.265 1.6 3.43 1.6 2.4L1.615 2.22C0.605 3.42 0 4.975 0 6.665C0 8.875 1.79 10.665 4 10.665C6.21 10.665 8 8.875 8 6.665C8 3.97 6.705 1.565 4.75 0ZM3.855 9.165C2.965 9.165 2.245 8.465 2.245 7.595C2.245 6.785 2.77 6.215 3.65 6.035C4.535 5.855 5.45 5.43 5.96 4.745C6.155 5.39 6.255 6.07 6.255 6.765C6.255 8.09 5.18 9.165 3.855 9.165Z" fill="#313144"/>
</svg>
