<svg width="45" height="45" viewBox="0 0 45 45" fill="none" xmlns="http://www.w3.org/2000/svg">
<path d="M43.8191 23.0545C44.0007 11.045 34.4124 1.16218 22.4029 0.980535C10.3934 0.798892 0.510539 10.3873 0.328895 22.3967C0.147251 34.4062 9.73561 44.2891 21.7451 44.4707C33.7546 44.6524 43.6375 35.064 43.8191 23.0545Z" fill="#FFA451"/>
<path d="M27.4797 15.0594C28.07 14.4743 29.0229 14.4786 29.608 15.0689C30.193 15.6593 30.1888 16.6121 29.5984 17.1972L16.5445 30.1346C15.9541 30.7197 15.0013 30.7154 14.4162 30.1251C13.8311 29.5347 13.8354 28.5818 14.4257 27.9968L27.4797 15.0594Z" fill="#FAFAFF"/>
<path d="M29.543 28.2857C30.131 28.8731 30.1315 29.826 29.5441 30.414C28.9567 31.002 28.0038 31.0025 27.4158 30.4151L14.4132 17.4261C13.8251 16.8387 13.8246 15.8858 14.4121 15.2978C14.9995 14.7098 15.9523 14.7093 16.5404 15.2967L29.543 28.2857Z" fill="#FAFAFF"/>
</svg>
