<svg width="6" height="6" viewBox="0 0 6 6" fill="none" xmlns="http://www.w3.org/2000/svg">
<path d="M2.60197 1.39572e-06C4.02646 -0.00147782 5.19948 1.17302 5.198 2.59751C5.19652 4.04419 4.03089 5.20685 2.57238 5.19502C1.15233 5.18466 0.00889774 4.04123 2.24268e-05 2.61082C-0.00589445 1.1671 1.15973 0.00148061 2.60197 1.39572e-06ZM2.59013 4.72463C3.76611 4.72758 4.72169 3.77793 4.72613 2.60047C4.73056 1.43632 3.77795 0.47631 2.61676 0.473351C1.43634 0.468914 0.476331 1.41413 0.473372 2.58272C0.470414 3.76461 1.41563 4.72167 2.59013 4.72463Z" fill="#838995"/>
<path d="M2.83445 2.9593C2.83445 3.23148 2.83593 3.50513 2.83445 3.77731C2.83297 3.94446 2.68061 4.05392 2.52677 4.00511C2.42767 3.97257 2.36554 3.88677 2.36406 3.77287C2.36258 3.57022 2.36406 3.36757 2.36406 3.16491C2.36406 2.82173 2.36258 2.47856 2.36406 2.13538C2.36406 1.96379 2.51494 1.85137 2.67174 1.90166C2.77233 1.9342 2.83297 2.02148 2.83445 2.13981C2.83593 2.41347 2.83445 2.68565 2.83445 2.9593Z" fill="#838995"/>
<path d="M2.83379 1.41581C2.83379 1.54746 2.72877 1.65249 2.5986 1.65249C2.46843 1.65249 2.3634 1.54746 2.3634 1.41581C2.3634 1.28416 2.46843 1.17914 2.5986 1.17914C2.72877 1.18062 2.83379 1.28564 2.83379 1.41581Z" fill="#838995"/>
</svg>
