<svg width="47" height="22" viewBox="0 0 47 22" fill="none" xmlns="http://www.w3.org/2000/svg">
<rect x="0.875" y="0.875" width="45.25" height="20.25" rx="10.125" fill="white" stroke="#EFEFEF" stroke-width="0.25"/>
<path d="M15.2437 14C15.1924 14 15.1667 13.9756 15.1667 13.9268V8.82544C15.1667 8.80347 15.1741 8.78516 15.1887 8.77051C15.2034 8.75586 15.2217 8.74854 15.2437 8.74854H16.0823C16.1189 8.74854 16.147 8.76929 16.1665 8.81079L17.928 12.9343L19.6895 8.81079C19.709 8.76929 19.7371 8.74854 19.7737 8.74854H20.6123C20.6611 8.74854 20.6855 8.77417 20.6855 8.82544V13.9268C20.6855 13.9756 20.6611 14 20.6123 14H19.8616C19.8127 14 19.7883 13.9756 19.7883 13.9268V10.7297L18.3857 13.9414C18.3662 13.9805 18.3381 14 18.3015 14H17.5581C17.5166 14 17.4897 13.9805 17.4775 13.9414L16.0676 10.7297V13.9268C16.0676 13.9756 16.042 14 15.9907 14H15.2437ZM26.2922 13.9158C26.302 13.9402 26.3008 13.9609 26.2886 13.978C26.2764 13.9927 26.2568 14 26.23 14H25.4133C25.3694 14 25.3401 13.9805 25.3254 13.9414L24.8896 12.7183H22.6631L22.2273 13.9414C22.2151 13.9805 22.1846 14 22.1357 14H21.3191C21.2922 14 21.2727 13.9927 21.2605 13.978C21.2507 13.9609 21.2507 13.9402 21.2605 13.9158L23.2087 8.81079C23.2234 8.76929 23.2539 8.74854 23.3003 8.74854H24.2524C24.2964 8.74854 24.3257 8.76929 24.3403 8.81079L26.2922 13.9158ZM22.9231 11.9675H24.6187L23.7727 9.59082L22.9231 11.9675ZM31.2288 13.9084C31.2434 13.9304 31.2458 13.9512 31.2361 13.9707C31.2263 13.9902 31.2068 14 31.1775 14H30.2473C30.2034 14 30.1729 13.9854 30.1558 13.9561L28.8154 12.0261L27.5374 13.9561C27.5203 13.9854 27.491 14 27.4495 14H26.5193C26.49 14 26.4705 13.9902 26.4607 13.9707C26.4509 13.9512 26.4534 13.9304 26.468 13.9084L28.3027 11.301L26.5925 8.84009C26.5779 8.81812 26.5754 8.79736 26.5852 8.77783C26.5974 8.7583 26.6182 8.74854 26.6475 8.74854H27.5776C27.6167 8.74854 27.646 8.7644 27.6655 8.79614L28.896 10.5649L30.0605 8.79614C30.0801 8.7644 30.1094 8.74854 30.1484 8.74854H31.0786C31.1079 8.74854 31.1274 8.7583 31.1372 8.77783C31.147 8.79736 31.1445 8.81812 31.1299 8.84009L29.405 11.301L31.2288 13.9084Z" fill="#5551FF"/>
</svg>
