<svg width="135" height="15" viewBox="0 0 135 15" fill="none" xmlns="http://www.w3.org/2000/svg">
<path d="M0.216473 14.63C0.0721578 14.63 0 14.5578 0 14.4316V0.216473C0 0.162355 0.0180395 0.108237 0.0541184 0.0721578C0.108237 0.0180395 0.144316 0 0.216473 0H1.93022C2.02042 0 2.09258 0.0541184 2.1467 0.180395L7.37814 12.3029L12.6096 0.180395C12.6637 0.0721578 12.7359 0 12.8441 0H14.5578C14.7022 0 14.7563 0.0721578 14.7563 0.216473V14.4316C14.7563 14.5759 14.6841 14.63 14.5578 14.63H13.0966C12.9523 14.63 12.8982 14.5578 12.8982 14.4316V4.29339L8.37031 14.4676C8.33423 14.5759 8.26207 14.63 8.15383 14.63H6.60244C6.4942 14.63 6.40401 14.5759 6.38597 14.4676L1.8761 4.29339V14.4316C1.8761 14.5759 1.80395 14.63 1.67767 14.63H0.216473Z" fill="#313144"/>
<path d="M26.5001 4.18457C26.6444 4.18457 26.6986 4.25673 26.6986 4.383V14.431C26.6986 14.5753 26.6264 14.6294 26.5001 14.6294H25.0389C24.8946 14.6294 24.8405 14.5573 24.8405 14.431L24.9668 12.6631C24.7322 13.3486 24.3173 13.8898 23.722 14.2686C23.1267 14.6475 22.3691 14.8459 21.4671 14.8459C20.042 14.8459 19.0137 14.4129 18.3824 13.529C17.751 12.6451 17.4263 11.2741 17.4263 9.41601V4.383C17.4263 4.23869 17.4984 4.18457 17.6247 4.18457H19.122C19.2663 4.18457 19.3204 4.25673 19.3204 4.383L19.3024 9.39797C19.3024 10.1917 19.3565 10.8592 19.4647 11.3823C19.591 11.9055 19.7714 12.3204 20.024 12.609C20.2765 12.8976 20.5651 13.0961 20.9079 13.2043C21.2326 13.3125 21.6475 13.3667 22.1346 13.3667C23.0005 13.3667 23.6499 13.06 24.1369 12.4466C24.606 11.8333 24.8405 10.8231 24.8585 9.39797V4.383C24.8585 4.23869 24.9307 4.18457 25.057 4.18457H26.5001Z" fill="#313144"/>
<path d="M29.8912 13.421C29.0253 12.4829 28.6104 11.166 28.6104 9.5064C28.6104 7.82873 29.0433 6.47577 29.8912 5.4836C30.757 4.47339 31.9477 3.98633 33.481 3.98633C34.9963 3.98633 36.1869 4.49143 37.0348 5.4836C37.9007 6.47577 38.3156 7.82873 38.3156 9.5064C38.3156 11.166 37.9007 12.4649 37.0528 13.421C36.205 14.359 35.0144 14.8461 33.463 14.8461C31.9476 14.828 30.757 14.359 29.8912 13.421ZM31.2441 6.52989C30.739 7.25147 30.5045 8.24364 30.5045 9.5064C30.5045 12.086 31.4967 13.3668 33.499 13.3668C35.4653 13.3668 36.4575 12.086 36.4575 9.5064C36.4575 8.24364 36.205 7.25147 35.7179 6.52989C35.2308 5.80831 34.4912 5.44752 33.499 5.44752C32.4888 5.42948 31.7492 5.80831 31.2441 6.52989Z" fill="#313144"/>
<path d="M40.2456 14.4316V4.38366C40.2456 4.23934 40.3178 4.18522 40.444 4.18522H41.9052C42.0496 4.18522 42.1037 4.25738 42.1037 4.38366L41.9774 6.15152C42.2119 5.46602 42.6268 4.92484 43.2221 4.54601C43.8174 4.16718 44.5751 3.96875 45.477 3.96875C46.2347 3.96875 46.8661 4.09503 47.4073 4.34758C47.9304 4.60013 48.3453 4.97896 48.652 5.46602C48.9587 5.97113 49.1751 6.53035 49.3014 7.16173C49.4277 7.79311 49.4998 8.53273 49.5179 9.38059V14.4316C49.5179 14.5759 49.4457 14.6301 49.3194 14.6301H47.8222C47.6779 14.6301 47.6237 14.5579 47.6237 14.4316L47.6418 9.41667C47.6418 7.95547 47.4614 6.92722 47.0465 6.33192C46.6496 5.73662 45.9822 5.44799 45.0261 5.44799C44.07 5.44799 43.3484 5.75466 42.8613 6.368C42.3562 6.98134 42.1217 7.99155 42.1037 9.41667V14.4316C42.1037 14.5759 42.0315 14.6301 41.9052 14.6301H40.444C40.3178 14.6301 40.2456 14.5579 40.2456 14.4316Z" fill="#313144"/>
<path d="M58.8268 14.63C58.6825 14.63 58.6104 14.5579 58.6104 14.4316V0.2165C58.6104 0.162382 58.6284 0.108264 58.6645 0.0721848C58.7006 0.0361059 58.7547 0.0180664 58.8088 0.0180664H60.5225C60.6308 0.0180664 60.721 0.0721848 60.7751 0.162382L67.9007 11.2386L67.8646 0.23454C67.8646 0.180421 67.8826 0.126303 67.9187 0.0902242C67.9548 0.0541453 68.0089 0.0361059 68.063 0.0361059H69.5603C69.6144 0.0361059 69.6685 0.0541453 69.7046 0.0902242C69.7407 0.126303 69.7587 0.180421 69.7587 0.23454V14.4316C69.7587 14.5759 69.6866 14.63 69.5423 14.63H67.8285C67.7203 14.63 67.6301 14.5759 67.576 14.4857L60.4504 3.39144V14.4316C60.4504 14.5759 60.3782 14.63 60.2519 14.63H58.8268Z" fill="#313144"/>
<path d="M81.3761 10.6429C81.4483 10.6429 81.5024 10.6609 81.5385 10.697C81.5745 10.7331 81.5926 10.7872 81.5565 10.8594C81.34 12.1041 80.8349 13.0782 80.0231 13.7818C79.2114 14.4853 78.147 14.828 76.8482 14.828C75.3148 14.828 74.1062 14.359 73.2583 13.421C72.3924 12.4829 71.9775 11.166 71.9775 9.5064C71.9775 7.82873 72.4105 6.47577 73.2583 5.4836C74.1242 4.47339 75.3148 3.98633 76.8482 3.98633C78.3274 3.98633 79.482 4.49143 80.3118 5.4836C81.1416 6.47577 81.5565 7.79265 81.5565 9.43424C81.5565 9.5966 81.5024 9.66876 81.3761 9.66876H73.8536C73.8717 10.9315 74.1242 11.8696 74.5933 12.4829C75.0623 13.0963 75.8199 13.3849 76.8482 13.3849C78.4537 13.3849 79.3918 12.537 79.6984 10.8413C79.7165 10.715 79.7886 10.6609 79.9149 10.6609H81.3761V10.6429ZM76.8482 5.42948C75.1886 5.42948 74.2325 6.3495 73.9438 8.18952H79.482C79.482 7.82873 79.4459 7.50402 79.3557 7.19735C79.2655 6.89068 79.1392 6.60205 78.9588 6.33146C78.7784 6.06086 78.4898 5.82635 78.129 5.68204C77.7682 5.51968 77.3533 5.42948 76.8482 5.42948Z" fill="#313144"/>
<path d="M88.6999 5.6469L85.8136 5.53867V12.3395C85.8136 12.538 85.8677 12.6823 85.9759 12.7905C86.0842 12.8988 86.2465 12.9529 86.4449 12.9529H88.6999C88.8442 12.9529 88.8983 13.025 88.8983 13.1694V14.4321C88.8983 14.5764 88.8262 14.6306 88.6999 14.6306H86.6434C85.8136 14.6306 85.1641 14.378 84.6771 13.8909C84.19 13.4039 83.9375 12.7364 83.9375 11.9066V5.53867L82.4763 5.6469C82.332 5.6469 82.2778 5.57475 82.2778 5.44847V4.40218C82.2778 4.25786 82.35 4.20375 82.4763 4.20375L83.9375 4.31198V1.8947C83.9375 1.75038 84.0096 1.67822 84.1359 1.67822H85.5971C85.7414 1.67822 85.7955 1.75038 85.7955 1.8947V4.29394L88.6818 4.18571C88.8262 4.18571 88.8803 4.25786 88.8803 4.38414V5.43043C88.8983 5.57474 88.8442 5.6469 88.6999 5.6469Z" fill="#313144"/>
<path d="M93.2818 14.6304C93.2096 14.6304 93.1555 14.5943 93.1194 14.5041L89.8182 4.34788C89.7821 4.23964 89.8182 4.18552 89.9265 4.18552H91.6041C91.6763 4.18552 91.7304 4.2216 91.7484 4.3118L94.4183 13.1692L97.052 4.3118C97.0881 4.2216 97.1422 4.18552 97.1964 4.18552H98.9101C98.9823 4.18552 99.0364 4.2216 99.0544 4.3118L101.706 13.1692L104.34 4.29376C104.376 4.20356 104.43 4.16748 104.484 4.16748H106.18C106.288 4.16748 106.324 4.2216 106.288 4.32984L102.987 14.486C102.951 14.5762 102.897 14.6123 102.807 14.6123H100.57C100.498 14.6123 100.443 14.5762 100.407 14.486L98.0442 7.21615L95.681 14.486C95.645 14.5762 95.5908 14.6123 95.5007 14.6123H93.2818V14.6304Z" fill="#313144"/>
<path d="M108.057 13.421C107.191 12.4829 106.776 11.166 106.776 9.5064C106.776 7.82873 107.209 6.47577 108.057 5.4836C108.923 4.47339 110.113 3.98633 111.647 3.98633C113.162 3.98633 114.352 4.49143 115.2 5.4836C116.066 6.47577 116.481 7.82873 116.481 9.5064C116.481 11.166 116.066 12.4649 115.218 13.421C114.37 14.359 113.18 14.8461 111.628 14.8461C110.113 14.828 108.923 14.359 108.057 13.421ZM109.41 6.52989C108.905 7.25147 108.67 8.24364 108.67 9.5064C108.67 12.086 109.662 13.3668 111.665 13.3668C113.631 13.3668 114.623 12.086 114.623 9.5064C114.623 8.24364 114.37 7.25147 113.883 6.52989C113.396 5.80831 112.657 5.44752 111.665 5.44752C110.654 5.42948 109.915 5.80831 109.41 6.52989Z" fill="#313144"/>
<path d="M118.411 14.4319V4.38395C118.411 4.23964 118.483 4.18552 118.61 4.18552H120.071C120.215 4.18552 120.269 4.25768 120.269 4.38395L120.143 6.11574C120.341 5.44828 120.684 4.94318 121.171 4.63651C121.658 4.32984 122.344 4.16748 123.246 4.16748H124.346C124.49 4.16748 124.545 4.23964 124.545 4.36591V5.4122C124.545 5.55652 124.472 5.61064 124.346 5.61064H123.246C122.254 5.61064 121.514 5.93535 121.027 6.58477C120.54 7.23419 120.287 8.17224 120.269 9.38088V14.4319C120.269 14.5762 120.197 14.6304 120.071 14.6304H118.61C118.465 14.6304 118.411 14.5582 118.411 14.4319Z" fill="#313144"/>
<path d="M134.953 14.3774C135.007 14.4316 135.007 14.5037 134.989 14.5578C134.953 14.612 134.899 14.648 134.827 14.648H132.987C132.843 14.648 132.753 14.612 132.716 14.5218L129.325 9.9217L127.81 11.4731V14.4316C127.81 14.5759 127.738 14.63 127.611 14.63H126.15C126.006 14.63 125.952 14.5578 125.952 14.4316V0.216473C125.952 0.0721578 126.024 0 126.15 0H127.611C127.756 0 127.81 0.0721578 127.81 0.216473V9.01973L132.374 4.29339C132.446 4.22123 132.518 4.18515 132.626 4.18515H134.466C134.556 4.18515 134.611 4.20319 134.629 4.25731C134.647 4.31143 134.647 4.36555 134.575 4.43771L130.642 8.53266L134.953 14.3774Z" fill="#313144"/>
</svg>
