<svg width="67" height="25" viewBox="0 0 67 25" fill="none" xmlns="http://www.w3.org/2000/svg">
<path d="M8.40811 8.99998L8.39611 1.81198L4.88011 7.88398H4.58011L1.06411 1.83598V8.99998H0.464111V0.599978H0.98011L4.73611 7.09198L8.49211 0.599978H8.99611L9.00811 8.99998H8.40811ZM15.7048 9.05998C14.6408 9.05998 13.8128 8.75198 13.2208 8.13598C12.6368 7.51998 12.3448 6.61998 12.3448 5.43598V0.599978H12.9568V5.41198C12.9568 6.44398 13.1928 7.21598 13.6648 7.72798C14.1368 8.23998 14.8208 8.49598 15.7168 8.49598C16.6048 8.49598 17.2848 8.23998 17.7568 7.72798C18.2288 7.21598 18.4648 6.44398 18.4648 5.41198V0.599978H19.0768V5.43598C19.0768 6.61998 18.7808 7.51998 18.1888 8.13598C17.5968 8.75198 16.7688 9.05998 15.7048 9.05998ZM25.9764 9.05998C25.1524 9.05998 24.4084 8.87598 23.7444 8.50798C23.0804 8.13198 22.5564 7.61998 22.1724 6.97198C21.7964 6.32398 21.6084 5.59998 21.6084 4.79998C21.6084 3.99998 21.7964 3.27598 22.1724 2.62798C22.5564 1.97998 23.0804 1.47198 23.7444 1.10398C24.4084 0.727978 25.1524 0.539978 25.9764 0.539978C26.8004 0.539978 27.5444 0.723978 28.2084 1.09198C28.8724 1.45998 29.3924 1.96798 29.7684 2.61598C30.1524 3.26398 30.3444 3.99198 30.3444 4.79998C30.3444 5.60798 30.1524 6.33598 29.7684 6.98398C29.3924 7.63198 28.8724 8.13998 28.2084 8.50798C27.5444 8.87598 26.8004 9.05998 25.9764 9.05998ZM25.9764 8.49598C26.6804 8.49598 27.3164 8.33598 27.8844 8.01598C28.4524 7.69598 28.9004 7.25598 29.2284 6.69598C29.5564 6.12798 29.7204 5.49598 29.7204 4.79998C29.7204 4.10398 29.5564 3.47598 29.2284 2.91598C28.9004 2.34798 28.4524 1.90398 27.8844 1.58398C27.3164 1.26398 26.6804 1.10398 25.9764 1.10398C25.2724 1.10398 24.6324 1.26398 24.0564 1.58398C23.4884 1.90398 23.0404 2.34798 22.7124 2.91598C22.3844 3.47598 22.2204 4.10398 22.2204 4.79998C22.2204 5.49598 22.3844 6.12798 22.7124 6.69598C23.0404 7.25598 23.4884 7.69598 24.0564 8.01598C24.6324 8.33598 25.2724 8.49598 25.9764 8.49598ZM39.7871 0.599978V8.99998H39.2831L33.5591 1.70398V8.99998H32.9471V0.599978H33.4631L39.1751 7.89598V0.599978H39.7871ZM7.30411 15.6V24H6.80011L1.07611 16.704V24H0.464111V15.6H0.98011L6.69211 22.896V15.6H7.30411ZM16.5135 23.448V24H10.7175V15.6H16.3335V16.152H11.3295V19.464H15.8055V20.004H11.3295V23.448H16.5135ZM20.8329 16.152H17.8089V15.6H24.4689V16.152H21.4449V24H20.8329V16.152ZM37.6634 15.6L34.8194 24H34.1714L31.5674 16.464L28.9514 24H28.3034L25.4474 15.6H26.0954L28.6514 23.16L31.2794 15.6H31.8674L34.4834 23.172L37.0634 15.6H37.6634ZM43.3895 24.06C42.5655 24.06 41.8215 23.876 41.1575 23.508C40.4935 23.132 39.9695 22.62 39.5855 21.972C39.2095 21.324 39.0215 20.6 39.0215 19.8C39.0215 19 39.2095 18.276 39.5855 17.628C39.9695 16.98 40.4935 16.472 41.1575 16.104C41.8215 15.728 42.5655 15.54 43.3895 15.54C44.2135 15.54 44.9575 15.724 45.6215 16.092C46.2851 16.46 46.8051 16.968 47.1811 17.616C47.5651 18.264 47.7571 18.992 47.7571 19.8C47.7571 20.608 47.5651 21.336 47.1811 21.984C46.8051 22.632 46.2851 23.14 45.6215 23.508C44.9575 23.876 44.2135 24.06 43.3895 24.06ZM43.3895 23.496C44.0935 23.496 44.7295 23.336 45.2975 23.016C45.8655 22.696 46.3131 22.256 46.6411 21.696C46.9691 21.128 47.1331 20.496 47.1331 19.8C47.1331 19.104 46.9691 18.476 46.6411 17.916C46.3131 17.348 45.8655 16.904 45.2975 16.584C44.7295 16.264 44.0935 16.104 43.3895 16.104C42.6855 16.104 42.0455 16.264 41.4695 16.584C40.9015 16.904 40.4535 17.348 40.1255 17.916C39.7975 18.476 39.6335 19.104 39.6335 19.8C39.6335 20.496 39.7975 21.128 40.1255 21.696C40.4535 22.256 40.9015 22.696 41.4695 23.016C42.0455 23.336 42.6855 23.496 43.3895 23.496ZM56.1921 24L54.1881 21.192C53.8921 21.232 53.6201 21.252 53.3721 21.252H50.9721V24H50.3601V15.6H53.3721C54.4281 15.6 55.2561 15.852 55.8561 16.356C56.4561 16.852 56.7561 17.544 56.7561 18.432C56.7561 19.096 56.5841 19.656 56.2401 20.112C55.9041 20.56 55.4201 20.876 54.7881 21.06L56.8881 24H56.1921ZM53.3721 20.712C54.2681 20.712 54.9521 20.516 55.4241 20.124C55.8961 19.724 56.1321 19.16 56.1321 18.432C56.1321 17.704 55.8961 17.144 55.4241 16.752C54.9521 16.352 54.2681 16.152 53.3721 16.152H50.9721V20.712H53.3721ZM61.9731 19.86L60.0891 21.792V24H59.4771V15.6H60.0891V21L65.3331 15.6H66.0771L62.3811 19.416L66.3291 24H65.5851L61.9731 19.86Z" fill="#5551FF"/>
</svg>
