<svg width="40" height="16" viewBox="0 0 40 16" fill="none" xmlns="http://www.w3.org/2000/svg">
<path d="M5.13546 6.12502L5.12831 1.63252L3.03615 5.42752H2.85764L0.765471 1.64752V6.12502H0.408447V0.875024H0.715488L2.95046 4.93252L5.18544 0.875024H5.48534L5.49248 6.12502H5.13546ZM9.47729 6.16252C8.84417 6.16252 8.35148 5.97002 7.99921 5.58502C7.65171 5.20002 7.47796 4.63752 7.47796 3.89752V0.875024H7.84212V3.88252C7.84212 4.52752 7.98255 5.01002 8.26341 5.33002C8.54427 5.65002 8.95127 5.81002 9.48443 5.81002C10.0128 5.81002 10.4175 5.65002 10.6983 5.33002C10.9792 5.01002 11.1196 4.52752 11.1196 3.88252V0.875024H11.4838V3.89752C11.4838 4.63752 11.3076 5.20002 10.9554 5.58502C10.6031 5.97002 10.1104 6.16252 9.47729 6.16252ZM15.5893 6.16252C15.099 6.16252 14.6563 6.04752 14.2612 5.81752C13.8661 5.58252 13.5543 5.26252 13.3258 4.85752C13.102 4.45252 12.9902 4.00002 12.9902 3.50002C12.9902 3.00002 13.102 2.54752 13.3258 2.14252C13.5543 1.73752 13.8661 1.42002 14.2612 1.19002C14.6563 0.955025 15.099 0.837524 15.5893 0.837524C16.0796 0.837524 16.5223 0.952524 16.9174 1.18252C17.3126 1.41252 17.622 1.73002 17.8457 2.13502C18.0742 2.54002 18.1885 2.99502 18.1885 3.50002C18.1885 4.00502 18.0742 4.46002 17.8457 4.86502C17.622 5.27002 17.3126 5.58752 16.9174 5.81752C16.5223 6.04752 16.0796 6.16252 15.5893 6.16252ZM15.5893 5.81002C16.0082 5.81002 16.3867 5.71002 16.7247 5.51002C17.0626 5.31002 17.3292 5.03502 17.5244 4.68502C17.7196 4.33002 17.8172 3.93502 17.8172 3.50002C17.8172 3.06502 17.7196 2.67252 17.5244 2.32252C17.3292 1.96752 17.0626 1.69002 16.7247 1.49002C16.3867 1.29002 16.0082 1.19002 15.5893 1.19002C15.1704 1.19002 14.7896 1.29002 14.4468 1.49002C14.1089 1.69002 13.8423 1.96752 13.6471 2.32252C13.4519 2.67252 13.3543 3.06502 13.3543 3.50002C13.3543 3.93502 13.4519 4.33002 13.6471 4.68502C13.8423 5.03502 14.1089 5.31002 14.4468 5.51002C14.7896 5.71002 15.1704 5.81002 15.5893 5.81002ZM23.8073 0.875024V6.12502H23.5074L20.1013 1.56502V6.12502H19.7372V0.875024H20.0442L23.4431 5.43502V0.875024H23.8073ZM4.47853 10.25V15.5H4.17863L0.772612 10.94V15.5H0.408447V10.25H0.715488L4.11436 14.81V10.25H4.47853ZM9.9585 15.155V15.5H6.50964V10.25H9.85139V10.595H6.87381V12.665H9.53721V13.0025H6.87381V15.155H9.9585ZM12.5287 10.595H10.7293V10.25H14.6923V10.595H12.8929V15.5H12.5287V10.595ZM22.5436 10.25L20.8513 15.5H20.4657L18.9162 10.79L17.3596 15.5H16.974L15.2745 10.25H15.6601L17.1811 14.975L18.7448 10.25H19.0947L20.6513 14.9825L22.1865 10.25H22.5436ZM25.9508 15.5375C25.4605 15.5375 25.0178 15.4225 24.6227 15.1925C24.2276 14.9575 23.9158 14.6375 23.6873 14.2325C23.4636 13.8275 23.3517 13.375 23.3517 12.875C23.3517 12.375 23.4636 11.9225 23.6873 11.5175C23.9158 11.1125 24.2276 10.795 24.6227 10.565C25.0178 10.33 25.4605 10.2125 25.9508 10.2125C26.4411 10.2125 26.8839 10.3275 27.279 10.5575C27.6738 10.7875 27.9833 11.105 28.207 11.51C28.4355 11.915 28.5497 12.37 28.5497 12.875C28.5497 13.38 28.4355 13.835 28.207 14.24C27.9833 14.645 27.6738 14.9625 27.279 15.1925C26.8839 15.4225 26.4411 15.5375 25.9508 15.5375ZM25.9508 15.185C26.3697 15.185 26.7482 15.085 27.0862 14.885C27.4242 14.685 27.6905 14.41 27.8857 14.06C28.0808 13.705 28.1784 13.31 28.1784 12.875C28.1784 12.44 28.0808 12.0475 27.8857 11.6975C27.6905 11.3425 27.4242 11.065 27.0862 10.865C26.7482 10.665 26.3697 10.565 25.9508 10.565C25.5319 10.565 25.1511 10.665 24.8084 10.865C24.4704 11.065 24.2038 11.3425 24.0086 11.6975C23.8134 12.0475 23.7159 12.44 23.7159 12.875C23.7159 13.31 23.8134 13.705 24.0086 14.06C24.2038 14.41 24.4704 14.685 24.8084 14.885C25.1511 15.085 25.5319 15.185 25.9508 15.185ZM33.5689 15.5L32.3764 13.745C32.2003 13.77 32.0385 13.7825 31.8909 13.7825H30.4628V15.5H30.0986V10.25H31.8909C32.5193 10.25 33.012 10.4075 33.369 10.7225C33.726 11.0325 33.9045 11.465 33.9045 12.02C33.9045 12.435 33.8022 12.785 33.5975 13.07C33.3975 13.35 33.1095 13.5475 32.7335 13.6625L33.9831 15.5H33.5689ZM31.8909 13.445C32.424 13.445 32.8311 13.3225 33.1119 13.0775C33.3928 12.8275 33.5332 12.475 33.5332 12.02C33.5332 11.565 33.3928 11.215 33.1119 10.97C32.8311 10.72 32.424 10.595 31.8909 10.595H30.4628V13.445H31.8909ZM37.0088 12.9125L35.8878 14.12V15.5H35.5236V10.25H35.8878V13.625L39.0082 10.25H39.4509L37.2516 12.635L39.6008 15.5H39.1581L37.0088 12.9125Z" fill="black"/>
</svg>
