<svg width="22" height="22" viewBox="0 0 22 22" fill="none" xmlns="http://www.w3.org/2000/svg">
<path d="M11.0003 0.166748C5.02033 0.166748 0.166992 5.02008 0.166992 11.0001C0.166992 16.9801 5.02033 21.8334 11.0003 21.8334C16.9803 21.8334 21.8337 16.9801 21.8337 11.0001C21.8337 5.02008 16.9803 0.166748 11.0003 0.166748ZM11.0003 19.6667C6.21199 19.6667 2.33366 15.7884 2.33366 11.0001C2.33366 8.99591 3.01616 7.15425 4.16449 5.69175L16.3087 17.8359C14.8462 18.9842 13.0045 19.6667 11.0003 19.6667ZM17.8362 16.3084L5.69199 4.16425C7.15449 3.01591 8.99616 2.33341 11.0003 2.33341C15.7887 2.33341 19.667 6.21175 19.667 11.0001C19.667 13.0042 18.9845 14.8459 17.8362 16.3084Z" fill="#D3DBE3"/>
</svg>
