<svg width="26" height="26" viewBox="0 0 26 26" fill="none" xmlns="http://www.w3.org/2000/svg">
<circle cx="13" cy="13" r="13" fill="#313144"/>
<path d="M9.89265 11.7233L13 8.616L16.1088 11.7247L17.9167 9.91667L13 5L8.08479 9.9152L9.89272 11.7232L9.89265 11.7233ZM5 13L6.80806 11.1917L8.61599 12.9996L6.80793 14.8077L5 13ZM9.89265 14.2769L13 17.384L16.1087 14.2754L17.9176 16.0824L17.9167 16.0834L13 21L8.08479 16.0848L8.08223 16.0822L9.89284 14.2767L9.89265 14.2769ZM17.384 13.0008L19.192 11.1927L20.9999 13.0006L19.1919 14.8087L17.384 13.0008Z" fill="white"/>
<path d="M14.8338 12.9997H14.8346L13.0001 11.165L11.6442 12.5206L11.4884 12.6765L11.1671 12.9978L11.1646 13.0003L11.1671 13.0029L13.0001 14.8362L14.8347 13.0016L14.8356 13.0006L14.834 12.9997" fill="white"/>
</svg>
