<svg width="26" height="26" viewBox="0 0 26 26" fill="none" xmlns="http://www.w3.org/2000/svg">
<circle cx="13" cy="13" r="13" fill="#313144"/>
<path fill-rule="evenodd" clip-rule="evenodd" d="M14.3 10.2412L17.45 8.34171V12.1407L14.3 10.2412ZM17.45 18.3819L13.25 20.9146L9.05 18.3819V13.9497L13.25 16.4824L17.45 13.9497V18.3819ZM9.05 8.34171L12.2 10.2412L9.05 12.1407V8.34171ZM13.775 11.1457L16.925 13.0452L13.775 14.9447V11.1457ZM12.725 14.9447L9.575 13.0452L12.725 11.1457V14.9447ZM16.925 7.43719L13.25 9.60804L9.575 7.43719L13.25 5.17588L16.925 7.43719ZM8 7.07538V18.9246L13.25 22L18.5 18.9246V7.07538L13.25 4L8 7.07538Z" fill="white"/>
</svg>
