<svg width="26" height="26" viewBox="0 0 26 26" fill="none" xmlns="http://www.w3.org/2000/svg">
<circle cx="13" cy="13" r="13" fill="#313144"/>
<path d="M7.62161 16.2417C7.64291 15.6558 7.57901 14.9192 7.64717 14.1854C7.78542 12.6968 8.46232 11.4991 9.64536 10.5933C10.5492 9.9013 11.5831 9.57834 12.7193 9.57756C13.3525 9.57718 13.986 9.5826 14.6192 9.57524C14.7624 9.57369 14.8043 9.61164 14.8012 9.75686C14.7915 10.2045 14.8008 10.6522 14.7969 11.0998C14.7892 11.934 14.1297 12.59 13.2944 12.6023C12.9246 12.6078 12.5528 12.5741 12.1896 12.6852C11.2544 12.9714 10.6445 13.7819 10.639 14.7802C10.6321 16.0914 10.6375 17.4027 10.6359 18.7139C10.6356 19.0214 10.6708 18.9791 10.373 18.9803C9.67557 18.9822 8.97852 18.9815 8.28109 18.9811C7.86287 18.9807 7.62548 18.7499 7.62277 18.3286C7.61851 17.683 7.62161 17.0371 7.62161 16.2417Z" fill="white"/>
<path d="M18.5687 9.7302C18.5687 10.3823 18.5989 11.036 18.5632 11.6862C18.4447 13.8563 16.8872 15.7205 14.7764 16.2518C14.3593 16.3568 13.9353 16.409 13.505 16.4087C12.8653 16.4079 12.2256 16.4028 11.5862 16.4106C11.4383 16.4125 11.4038 16.3664 11.4069 16.2251C11.4162 15.784 11.41 15.3426 11.412 14.9011C11.4151 14.0511 12.0618 13.4005 12.916 13.3827C13.2475 13.3757 13.5802 13.4079 13.9089 13.3281C14.8856 13.0907 15.5644 12.2396 15.5687 11.2223C15.5741 9.88548 15.5741 8.54871 15.5671 7.21193C15.5663 7.04503 15.6035 6.9974 15.7758 7.00011C16.4922 7.01095 17.2087 7.00437 17.9251 7.00514C18.3445 7.00592 18.5768 7.23517 18.5787 7.65688C18.5818 8.34773 18.5795 9.03819 18.5795 9.72904C18.5753 9.7302 18.5718 9.7302 18.5687 9.7302Z" fill="white"/>
<path d="M7.62176 11.6571C7.62176 11.443 7.62176 11.2664 7.62176 11.0894C7.62176 9.79173 7.62409 8.49368 7.61867 7.19602C7.61789 7.05003 7.64887 7.00007 7.80571 7.00201C8.5345 7.01091 9.2633 7.00472 9.99249 7.00665C10.3898 7.00782 10.6256 7.24094 10.6283 7.63709C10.6314 8.09753 10.628 8.55758 10.6291 9.01801C10.6295 9.10592 10.6229 9.1733 10.5215 9.21396C9.32023 9.69686 8.38116 10.4934 7.69612 11.5909C7.68643 11.6056 7.66823 11.6153 7.62176 11.6571Z" fill="white"/>
<path d="M18.5789 14.3496C18.5789 14.4917 18.5789 14.5971 18.5789 14.7028C18.5793 16.0585 18.5774 17.4143 18.5828 18.77C18.5836 18.928 18.5549 18.9877 18.3756 18.9877C17.6492 18.9873 16.9227 18.964 16.1958 18.9993C15.862 19.0155 15.584 18.7363 15.5758 18.3952C15.5642 17.9096 15.5735 17.4232 15.5708 16.9372C15.5704 16.8559 15.5971 16.8125 15.6761 16.7807C16.8758 16.2955 17.8168 15.5009 18.5054 14.4058C18.5112 14.3957 18.5243 14.3903 18.5789 14.3496Z" fill="white"/>
</svg>
