<svg width="26" height="26" viewBox="0 0 26 26" fill="none" xmlns="http://www.w3.org/2000/svg">
<circle cx="13" cy="13" r="13" fill="#313144"/>
<path d="M16.6993 12.6701C17.0486 12.0771 17.6122 12.0771 17.9615 12.6701L20.1366 16.4232C20.4859 17.0162 20.2001 17.5 19.5016 17.5H15.1195C14.4289 17.5 14.1431 17.0162 14.4845 16.4232L16.6993 12.6701ZM12.4919 5.44476C12.8412 4.85175 13.3969 4.85175 13.7462 5.44476L14.2304 6.30306L15.3736 8.27715C15.6514 8.83895 15.6514 9.50218 15.3736 10.064L11.5393 16.5949C11.19 17.1255 10.6105 17.461 9.96747 17.5H6.78415C6.08557 17.5 5.79978 17.024 6.14908 16.4232L12.4919 5.44476Z" fill="white"/>
</svg>
